<?xml version="1.0" standalone="no"?>
<!DOCTYPE svg PUBLIC "-//W3C//DTD SVG 20010904//EN"
 "http://www.w3.org/TR/2001/REC-SVG-20010904/DTD/svg10.dtd">
<svg version="1.0" xmlns="http://www.w3.org/2000/svg"
 width="512.000000pt" height="512.000000pt" viewBox="0 0 512.000000 512.000000"
 preserveAspectRatio="xMidYMid meet">

<g transform="translate(0.000000,512.000000) scale(0.100000,-0.100000)"
fill="#000000" stroke="none">
<path d="M2330 5110 c-322 -31 -646 -125 -928 -269 -259 -133 -429 -258 -647
-476 -230 -229 -352 -399 -490 -680 -121 -246 -192 -469 -237 -745 -31 -195
-31 -565 0 -760 45 -276 116 -499 237 -745 138 -281 260 -451 490 -680 229
-230 399 -352 680 -490 246 -121 469 -192 745 -237 195 -31 565 -31 760 0 276
45 499 116 745 237 281 138 451 260 680 490 230 229 352 399 490 680 88 179
132 296 180 476 63 240 78 371 78 649 0 278 -15 409 -78 649 -48 180 -92 297
-180 476 -138 281 -260 451 -490 680 -229 230 -399 352 -680 490 -246 121
-473 193 -740 235 -147 23 -475 34 -615 20z m456 -261 c434 -42 866 -219 1214
-497 540 -432 860 -1100 860 -1792 0 -606 -245 -1195 -675 -1625 -430 -430
-1019 -675 -1625 -675 -606 0 -1195 245 -1625 675 -430 430 -675 1019 -675
1625 0 692 320 1360 860 1792 342 273 781 455 1200 497 125 12 341 13 466 0z"/>
<path d="M1665 3526 c-37 -16 -53 -35 -65 -77 -21 -72 -16 -79 395 -489 l385
-385 -385 -385 c-411 -411 -415 -416 -395 -490 17 -63 74 -96 145 -84 37 6 73
39 428 392 l387 386 388 -386 c354 -353 390 -386 427 -392 71 -12 128 21 145
84 20 74 16 79 -395 490 l-385 385 385 385 c412 411 415 416 395 491 -17 62
-74 95 -145 83 -37 -6 -73 -39 -427 -392 l-388 -386 -387 385 c-318 317 -394
387 -422 393 -44 8 -51 7 -86 -8z"/>
</g>
</svg>
