<?xml version="1.0" standalone="no"?>
<!DOCTYPE svg PUBLIC "-//W3C//DTD SVG 20010904//EN"
 "http://www.w3.org/TR/2001/REC-SVG-20010904/DTD/svg10.dtd">
<svg version="1.0" xmlns="http://www.w3.org/2000/svg"
 width="512.000000pt" height="512.000000pt" viewBox="0 0 512.000000 512.000000"
 preserveAspectRatio="xMidYMid meet">

<g transform="translate(0.000000,512.000000) scale(0.100000,-0.100000)"
fill="#000000" stroke="none">
<path d="M2380 4629 c-246 -22 -540 -104 -752 -210 -815 -409 -1272 -1317
-1117 -2219 69 -405 261 -777 559 -1084 185 -191 352 -313 585 -426 490 -239
1042 -274 1568 -99 988 328 1584 1363 1372 2383 -80 387 -270 744 -550 1034
-431 449 -1041 676 -1665 621z m330 -319 c238 -21 420 -73 635 -180 183 -91
303 -178 450 -325 536 -536 673 -1317 351 -2000 -232 -492 -682 -848 -1216
-963 -572 -124 -1157 41 -1578 443 -578 551 -716 1386 -346 2095 83 159 174
280 319 425 197 198 408 330 665 416 247 82 474 110 720 89z"/>
<path d="M2336 3575 c-204 -52 -364 -204 -431 -410 -25 -75 -27 -90 -17 -124
40 -132 195 -163 283 -58 10 12 18 25 19 29 1 31 48 124 82 162 67 77 104 91
233 91 97 0 116 -3 165 -26 129 -60 187 -175 145 -286 -14 -38 -55 -86 -189
-223 -137 -139 -179 -189 -208 -245 -53 -102 -68 -164 -68 -274 0 -86 3 -100
24 -132 65 -95 220 -88 271 12 9 16 19 69 24 117 4 48 16 103 26 122 9 19 87
104 172 189 85 84 173 181 194 214 76 117 105 273 75 401 -46 195 -193 351
-398 423 -62 22 -94 26 -208 29 -95 2 -152 -1 -194 -11z"/>
<path d="M2422 1821 c-47 -30 -72 -77 -72 -136 0 -185 269 -213 310 -32 11 53
-6 109 -46 148 -30 29 -42 33 -97 37 -49 2 -69 -1 -95 -17z"/>
</g>
</svg>
